<svg xmlns="http://www.w3.org/2000/svg" viewBox="0 0 64 64" fill="none">
  <defs>
    <linearGradient id="bg" x1="10" y1="8" x2="54" y2="58" gradientUnits="userSpaceOnUse">
      <stop stop-color="#17201c" />
      <stop offset="1" stop-color="#0d120f" />
    </linearGradient>
    <linearGradient id="bean" x1="23" y1="16" x2="41" y2="47" gradientUnits="userSpaceOnUse">
      <stop stop-color="#efd9bb" />
      <stop offset="1" stop-color="#cda16e" />
    </linearGradient>
    <linearGradient id="leaf" x1="36" y1="15" x2="45" y2="25" gradientUnits="userSpaceOnUse">
      <stop stop-color="#a8c58f" />
      <stop offset="1" stop-color="#7ca776" />
    </linearGradient>
  </defs>
  <rect x="4" y="4" width="56" height="56" rx="18" fill="url(#bg)" />
  <rect x="4.75" y="4.75" width="54.5" height="54.5" rx="17.25" stroke="#304236" stroke-width="1.5" />
  <path
    d="M31.813 16C24.873 16 19 22.344 19 30.64C19 39.095 24.707 48 31.813 48C38.919 48 45 39.095 45 30.64C45 22.344 38.754 16 31.813 16Z"
    fill="url(#bean)"
  />
  <path
    d="M34.369 20.316C30.67 24.079 28.998 29.15 29.559 34.052C29.983 37.756 31.562 41.405 34.802 44.992"
    stroke="#3b2a1f"
    stroke-linecap="round"
    stroke-width="2.4"
  />
  <path
    d="M36.342 15.799C40.113 15.267 43.427 17.174 44.544 20.522C40.842 21.244 37.197 19.711 36.342 15.799Z"
    fill="url(#leaf)"
  />
</svg>
